Coordinates
version=1
nRows=16
nColumns=24
inDegrees=yes

Units are S.I. units (second, meters, Newtons, ...)
If the header above contains a line with 'inDegrees', this indicates whether rotational values are in degrees (yes) or radians (no).

endheader
time	pelvis_tilt	pelvis_list	pelvis_rotation	pelvis_tx	pelvis_ty	pelvis_tz	hip_flexion_r	hip_adduction_r	hip_rotation_r	knee_angle_r	ankle_angle_r	subtalar_angle_r	mtp_angle_r	hip_flexion_l	hip_adduction_l	hip_rotation_l	knee_angle_l	ankle_angle_l	subtalar_angle_l	mtp_angle_l	lumbar_extension	lumbar_bending	lumbar_rotation
5.725000	9.985031	1.291110	-179.216604	0.261336	0.803772	-1.208587	33.573865	-18.682990	-26.627704	-43.919435	13.284585	8.932573	0.000000	34.584740	-22.478658	-25.868752	-44.193296	13.104725	18.972782	0.000000	-1.633048	2.335870	1.531370
5.730000	9.915166	1.285389	-179.162066	0.262112	0.801258	-1.208703	34.024732	-18.929957	-26.474323	-44.913919	13.781007	8.925109	0.000000	35.057689	-22.726940	-25.737678	-45.140118	13.518569	19.184794	0.000000	-1.772507	2.308066	1.516212
5.735000	9.819168	1.281270	-179.129455	0.262840	0.798659	-1.208756	34.472770	-19.180651	-26.303890	-45.941864	14.288336	8.938123	0.000000	35.495560	-22.973311	-25.597460	-46.096413	13.961197	19.341940	0.000000	-2.006231	2.295839	1.501679
5.740000	9.766539	1.281500	-179.104351	0.263595	0.795988	-1.208814	34.960673	-19.425046	-26.141625	-46.952484	14.759751	8.968490	0.000000	35.979100	-23.217829	-25.436898	-47.042149	14.392332	19.472186	0.000000	-2.159515	2.281336	1.518985
5.745000	9.645385	1.274405	-179.084031	0.264296	0.793354	-1.208877	35.373548	-19.652698	-25.934264	-47.942181	15.247449	8.924976	0.000000	36.390202	-23.451764	-25.259980	-48.005624	14.869572	19.562783	0.000000	-2.384712	2.269504	1.528142
5.750000	9.660380	1.264509	-179.080794	0.265097	0.790511	-1.208981	35.948088	-19.891776	-25.737823	-48.940304	15.668260	9.010285	0.000000	36.931581	-23.680336	-25.097314	-48.930922	15.332845	19.715112	0.000000	-2.440625	2.260873	1.554742
5.755000	9.604971	1.273033	-179.046288	0.265833	0.787643	-1.209128	36.428716	-20.107307	-25.548664	-49.929492	16.145514	9.026333	0.000000	37.422087	-23.913216	-24.882316	-49.864966	15.791737	19.807894	0.000000	-2.619721	2.250423	1.526226
5.760000	9.555937	1.257205	-179.006998	0.266604	0.784802	-1.209212	36.925290	-20.343692	-25.340038	-50.919589	16.612363	9.028972	0.000000	37.917774	-24.101193	-24.654977	-50.783622	16.238217	19.845162	0.000000	-2.752365	2.225916	1.525265
5.765000	9.538050	1.304773	-179.036313	0.267337	0.781898	-1.209313	37.458463	-20.488145	-25.124920	-51.897424	17.078124	9.048572	0.000000	38.459648	-24.377369	-24.410243	-51.743149	16.696360	19.858987	0.000000	-2.906825	2.264276	1.596236
5.770000	9.568993	1.313918	-179.041972	0.268119	0.778950	-1.209345	38.046048	-20.668191	-24.874756	-52.861736	17.527355	9.025064	0.000000	39.047394	-24.577811	-24.151033	-52.666874	17.137492	19.815113	0.000000	-2.985250	2.284709	1.623887
5.775000	9.478070	1.321072	-178.992402	0.269069	0.775807	-1.209496	38.525750	-20.884808	-24.660094	-53.888015	18.015494	9.021624	0.000000	39.585816	-24.767776	-23.808816	-53.656366	17.628788	19.795914	0.000000	-3.165435	2.042374	2.162566
5.780000	9.532206	1.304725	-178.984261	0.269643	0.772884	-1.209619	39.085252	-21.076675	-24.416453	-54.774072	18.452347	9.045552	0.000000	40.158467	-24.923351	-23.537826	-54.522152	18.075960	19.788890	0.000000	-3.227626	2.245371	1.622441
5.785000	9.431520	1.336667	-178.960840	0.270630	0.769669	-1.209842	39.569272	-21.238450	-24.198576	-55.798906	18.962609	8.946068	0.000000	40.694941	-25.143014	-23.172345	-55.509316	18.555410	19.722119	0.000000	-3.455400	2.019363	2.190736
5.790000	9.546939	1.390301	-179.013658	0.271428	0.766454	-1.209866	40.259879	-21.353742	-23.956238	-56.743566	19.340586	8.910666	0.000000	41.398119	-25.372941	-22.836755	-56.448906	18.975177	19.631900	0.000000	-3.434196	2.084290	2.302396
5.795000	9.545984	1.422125	-179.023261	0.272218	0.763310	-1.210076	40.821694	-21.503641	-23.754239	-57.718733	19.772949	8.856631	0.000000	41.987082	-25.580334	-22.490973	-57.375231	19.378986	19.520046	0.000000	-3.564053	2.079171	2.369309
5.800000	9.581314	1.450332	-179.009670	0.273063	0.760004	-1.210234	41.419803	-21.673278	-23.548359	-58.691307	20.194983	8.824728	0.000000	42.639419	-25.756940	-22.107602	-58.314668	19.829108	19.433962	0.000000	-3.638103	2.100429	2.382035
